<?xml version="1.0" standalone="no"?>
<!DOCTYPE svg PUBLIC "-//W3C//DTD SVG 20010904//EN"
 "http://www.w3.org/TR/2001/REC-SVG-20010904/DTD/svg10.dtd">
<svg version="1.0" xmlns="http://www.w3.org/2000/svg"
 width="225.000000pt" height="225.000000pt" viewBox="0 0 225.000000 225.000000"
 preserveAspectRatio="xMidYMid meet">
<metadata>
Created by potrace 1.16, written by Peter Selinger 2001-2019
</metadata>
<g transform="translate(0.000000,225.000000) scale(0.100000,-0.100000)"
fill="#000000" stroke="none">
<path d="M910 2180 c-228 -49 -413 -151 -568 -314 -144 -152 -225 -307 -278
-531 -24 -106 -22 -324 4 -443 95 -420 403 -726 834 -829 102 -24 344 -24 446
0 218 52 397 150 541 296 228 229 336 531 310 859 -38 474 -389 865 -864 963
-119 25 -308 24 -425 -1z m462 -78 c184 -50 318 -126 453 -257 152 -147 241
-308 289 -518 21 -90 21 -311 1 -409 -108 -515 -593 -863 -1113 -799 -225 28
-428 127 -591 290 -142 142 -229 302 -275 504 -21 89 -21 321 -1 415 73 347
335 642 670 752 123 41 182 49 340 46 114 -2 169 -8 227 -24z"/>
<path d="M1493 1636 c-34 -6 -64 -13 -67 -17 -3 -3 28 -38 68 -78 l74 -74 11
54 c26 132 26 129 0 128 -13 -1 -52 -7 -86 -13z"/>
<path d="M1185 1320 c-33 -33 -66 -60 -75 -60 -9 0 -36 20 -60 45 -24 25 -51
45 -59 45 -16 0 -321 -298 -321 -314 0 -14 52 -66 65 -66 7 0 37 26 67 58 31
31 85 86 121 121 l65 64 62 -59 61 -58 105 105 104 105 -38 37 -38 37 -59 -60z"/>
<path d="M1345 1167 c-3 -7 -4 -129 -3 -272 l3 -260 128 -3 127 -3 0 276 0
275 -125 0 c-92 0 -127 -3 -130 -13z"/>
<path d="M1000 820 l0 -190 125 0 125 0 -2 188 -3 187 -122 3 -123 3 0 -191z"/>
<path d="M644 867 c-2 -7 -3 -62 -2 -123 l3 -109 128 -3 127 -3 0 126 0 125
-125 0 c-95 0 -127 -3 -131 -13z"/>
</g>
</svg>
